<svg xmlns="http://www.w3.org/2000/svg" xmlns:xlink="http://www.w3.org/1999/xlink" viewBox="0 0 685.35 531.66"><defs><style>.cls-1,.cls-4,.cls-5,.cls-9{fill:none;}.cls-2{clip-path:url(#clip-path);}.cls-11,.cls-3{fill:#00d3ec;}.cls-3{fill-rule:evenodd;}.cls-12,.cls-4,.cls-5,.cls-9{stroke:#fff;}.cls-4,.cls-5,.cls-9{stroke-linecap:round;}.cls-4,.cls-9{stroke-linejoin:round;}.cls-4,.cls-5{stroke-width:10px;}.cls-6{isolation:isolate;}.cls-7{clip-path:url(#clip-path-3);}.cls-8{font-size:168.98px;font-family:Arial-BoldMT, Arial;font-weight:700;}.cls-10,.cls-12,.cls-8{fill:#fff;}.cls-9{stroke-width:6px;}.cls-12{stroke-miterlimit:10;}</style><clipPath id="clip-path" transform="translate(-655.76 -751.55)"><rect class="cls-1" width="2000" height="2000"/></clipPath><clipPath id="clip-path-3" transform="translate(-655.76 -751.55)"><rect class="cls-1" x="655.76" y="751.55" width="685.35" height="220.99"/></clipPath></defs><title>Web logo v1</title><g id="Layer_1" data-name="Layer 1"><g class="cls-2"><polygon class="cls-3" points="233.21 332.39 347.09 294.78 460.69 332.03 348.35 367.95 233.21 332.39"/><polygon class="cls-4" points="233.21 332.39 347.09 294.78 460.69 332.03 348.35 367.95 233.21 332.39"/><polygon class="cls-3" points="349.83 374.54 466.2 335.22 466.2 484.74 349.83 526.29 349.83 374.54"/><polygon class="cls-4" points="349.83 374.54 466.2 335.22 466.2 484.74 349.83 526.29 349.83 374.54"/><polygon class="cls-3" points="344.27 374.7 227.91 335.38 227.91 485.11 344.27 526.66 344.27 374.7"/><polygon class="cls-4" points="344.27 374.7 227.91 335.38 227.91 485.11 344.27 526.66 344.27 374.7"/><polygon class="cls-3" points="347.06 265.12 321.16 229.53 372.96 229.53 347.06 265.12"/><polyline class="cls-4" points="347.06 265.12 321.16 229.53 372.96 229.53 347.06 265.12"/><g class="cls-2"><path class="cls-3" d="M1105.29,924.26s-16.6,49.09-38.47,49.09H938.3c-24.24,0-38.47-49.09-38.47-49.09Z" transform="translate(-655.76 -751.55)"/><path class="cls-5" d="M1105.29,924.26s-16.6,49.09-38.47,49.09H938.3c-24.24,0-38.47-49.09-38.47-49.09Z" transform="translate(-655.76 -751.55)"/><line class="cls-5" x1="9" y1="172.53" x2="678.58" y2="172.53"/><line class="cls-5" x1="9" y1="6.71" x2="678.58" y2="6.71"/><g class="cls-6"><g class="cls-7"><text class="cls-8" transform="translate(0 153.59) scale(1 1.06)">SEWING</text></g></g><path class="cls-9" d="M984,1046s16.18-3.86,18-14c3.37-2.77,0-7,0-7" transform="translate(-655.76 -751.55)"/></g></g></g><g id="Layer_2" data-name="Layer 2"><path class="cls-10" d="M1036,1138v108.53s35.88-6.32,50.17-20c12.22-11.77,20.56-36.16,19.83-63.14C1099.92,1107.26,1036,1138,1036,1138Z" transform="translate(-655.76 -751.55)"/><path class="cls-11" d="M1056.66,1153.58v67.57s29.73-2.22,31.49-40.67C1087.54,1145.32,1073.78,1147.46,1056.66,1153.58Z" transform="translate(-655.76 -751.55)"/></g><g id="Layer_3" data-name="Layer 3"><path class="cls-12" d="M911.9,1121.63,973,1137.22v19.42L949,1177.09s27.36,12.41,25,38.55-20.6,25.25-27.86,24.77c-9.78-.65-30.57-12.84-37-23.7L920.92,1204s10.18,18,22.47,16.2c11.73-1.76,10.67-8.88,10.39-12.08-.55-6.47-3.21-17-26-20.36l-2.48-15.64,21.14-20.56-34.55-9.17Z" transform="translate(-655.76 -751.55)"/></g></svg>